<svg xmlns="http://www.w3.org/2000/svg" xmlns:xlink="http://www.w3.org/1999/xlink" width="500" zoomAndPan="magnify" viewBox="0 0 375 374.999991" height="500" preserveAspectRatio="xMidYMid meet" version="1.2"><defs><clipPath id="484bc6b88b"><path d="M 88.742188 0 L 284.933594 0 L 284.933594 196.191406 L 88.742188 196.191406 Z M 88.742188 0 "/></clipPath><clipPath id="1cf7ee4f93"><path d="M 186.839844 0 C 132.664062 0 88.742188 43.917969 88.742188 98.09375 C 88.742188 152.269531 132.664062 196.191406 186.839844 196.191406 C 241.015625 196.191406 284.933594 152.269531 284.933594 98.09375 C 284.933594 43.917969 241.015625 0 186.839844 0 Z M 186.839844 0 "/></clipPath><clipPath id="b08116248e"><path d="M 44.101562 230 L 358 230 L 358 375 L 44.101562 375 Z M 44.101562 230 "/></clipPath><clipPath id="e6a5196d3c"><path d="M 44.101562 229.820312 L 358.351562 229.820312 L 358.351562 375 L 44.101562 375 Z M 44.101562 229.820312 "/></clipPath><clipPath id="f31516151b"><path d="M 30 218.441406 L 344 218.441406 L 344 375 L 30 375 Z M 30 218.441406 "/></clipPath></defs><g id="b06697e4ca"><g clip-rule="nonzero" clip-path="url(#484bc6b88b)"><g clip-rule="nonzero" clip-path="url(#1cf7ee4f93)"><path style=" stroke:none;fill-rule:nonzero;fill:#000000;fill-opacity:1;" d="M 88.742188 0 L 284.933594 0 L 284.933594 196.191406 L 88.742188 196.191406 Z M 88.742188 0 "/></g></g><g clip-rule="nonzero" clip-path="url(#b08116248e)"><path style=" stroke:none;fill-rule:nonzero;fill:#ffffff;fill-opacity:1;" d="M 44.867188 374.789062 C 51.230469 294.027344 118.964844 230.351562 201.226562 230.351562 C 283.488281 230.351562 351.121094 294.027344 357.480469 374.789062 Z M 45.929688 374.789062 C 52.289062 294.664062 119.496094 231.410156 201.226562 231.410156 C 282.957031 231.410156 350.058594 294.664062 356.527344 374.789062 Z M 45.929688 374.789062 "/><path style=" stroke:none;fill-rule:nonzero;fill:#000000;fill-opacity:1;" d="M 45.929688 374.789062 L 44.867188 374.789062 C 51.230469 294.027344 118.964844 230.351562 201.226562 230.351562 C 283.488281 230.351562 351.121094 294.027344 357.480469 374.789062 L 44.867188 374.789062 C 51.230469 294.027344 118.964844 230.351562 201.226562 230.351562 C 283.488281 230.351562 351.121094 294.027344 357.480469 374.789062 Z M 45.929688 374.789062 "/></g><g clip-rule="nonzero" clip-path="url(#e6a5196d3c)"><path style="fill:none;stroke-width:1;stroke-linecap:butt;stroke-linejoin:miter;stroke:#fef8fb;stroke-opacity:1;stroke-miterlimit:10;" d="M 110.501181 283.100004 L 109.49888 283.100004 C 115.501627 207.000818 179.39827 147.001165 256.999157 147.001165 C 334.600045 147.001165 398.400879 207.000818 404.399941 283.100004 L 109.49888 283.100004 C 115.501627 207.000818 179.39827 147.001165 256.999157 147.001165 C 334.600045 147.001165 398.400879 207.000818 404.399941 283.100004 Z M 110.501181 283.100004 " transform="matrix(1.060062,0,0,1.061269,-71.208368,74.343761)"/></g><g clip-rule="nonzero" clip-path="url(#f31516151b)"><path style=" stroke:none;fill-rule:nonzero;fill:#000000;fill-opacity:1;" d="M 186.933594 218.414062 C 230.289062 218.414062 269.523438 235.972656 297.765625 264.371094 C 326.160156 292.769531 343.714844 332.007812 343.714844 375.21875 L 322.191406 375.21875 C 322.191406 337.964844 307.078125 304.066406 282.652344 279.640625 C 258.074219 255.210938 224.335938 239.941406 186.933594 239.941406 C 149.6875 239.941406 115.796875 255.210938 91.371094 279.640625 C 66.945312 304.066406 51.832031 337.964844 51.832031 375.21875 L 30.308594 375.21875 C 30.308594 332.007812 47.710938 292.769531 76.105469 264.371094 C 104.5 235.972656 143.734375 218.414062 186.933594 218.414062 Z M 186.933594 218.414062 "/></g></g></svg>