<svg xmlns="http://www.w3.org/2000/svg" xmlns:xlink="http://www.w3.org/1999/xlink" width="400" zoomAndPan="magnify" viewBox="0 0 300 149.999998" height="200" preserveAspectRatio="xMidYMid meet" version="1.2"><defs><clipPath id="4a99f4a691"><path d="M 81.09375 1.789062 L 160.613281 1.789062 L 160.613281 146 L 81.09375 146 Z M 81.09375 1.789062 "/></clipPath><clipPath id="2c27a1e044"><path d="M 142.210938 145.027344 C 135.96875 122.300781 114.609375 73.441406 108.171875 55.59375 C 105.050781 46.71875 101.734375 38.621094 101.929688 35.597656 C 101.929688 34.625 102.027344 34.332031 102.613281 33.746094 C 104.46875 32.28125 111.683594 31.210938 117.4375 30.527344 C 125.433594 29.453125 142.308594 28.089844 146.402344 29.453125 C 147.671875 29.84375 148.257812 30.527344 148.550781 31.210938 C 148.746094 31.890625 148.648438 32.574219 148.257812 33.453125 C 147.476562 35.011719 145.625 36.671875 142.699219 39.011719 C 135.285156 44.960938 97.835938 62.027344 99.003906 66.125 C 99.980469 69.441406 128.945312 64.855469 133.628906 66.125 C 134.894531 66.417969 135.382812 66.710938 135.871094 67.296875 C 136.261719 68.074219 136.261719 69.246094 135.871094 70.613281 C 135.285156 73.050781 133.140625 76.949219 130.410156 80.558594 C 126.410156 86.019531 119.390625 92.847656 112.367188 98.992188 C 103.980469 106.308594 86.910156 120.253906 83.011719 120.839844 C 82.132812 120.9375 81.449219 120.644531 81.253906 120.15625 C 80.863281 119.082031 84.082031 115.960938 84.960938 113.621094 C 85.9375 111.378906 86.230469 110.011719 86.8125 106.40625 C 88.667969 95.578125 90.617188 60.078125 92.859375 41.546875 C 94.617188 27.40625 97.152344 8.679688 98.421875 4.390625 C 98.710938 3.511719 98.710938 3.21875 99.101562 2.828125 C 99.589844 2.339844 100.46875 1.949219 101.347656 1.949219 C 102.417969 1.949219 103.785156 2.535156 105.148438 3.804688 C 108.269531 6.730469 111.683594 14.238281 116.171875 23.210938 C 125.628906 42.328125 148.160156 95.675781 154.890625 114.5 C 157.914062 122.691406 161.324219 130.496094 160.351562 132.445312 C 160.058594 133.128906 158.886719 133.421875 158.59375 133.226562 C 158.398438 133.03125 158.691406 131.273438 158.886719 131.175781 C 159.179688 131.078125 160.449219 132.445312 160.351562 132.738281 C 160.15625 133.03125 158.886719 133.226562 158.207031 132.738281 C 156.253906 131.273438 155.765625 123.277344 152.839844 115.378906 C 146.113281 96.75 123.289062 42.914062 114.121094 24.285156 C 109.929688 15.605469 106.710938 8.191406 103.882812 5.753906 C 102.710938 4.78125 101.636719 4.097656 100.664062 4.683594 C 97.542969 6.632812 96.761719 27.601562 95.105469 41.742188 C 92.761719 60.371094 91.59375 94.507812 88.960938 106.988281 C 87.886719 112.160156 86.617188 115.28125 85.351562 117.71875 C 84.570312 119.082031 83.789062 120.546875 83.011719 120.839844 C 82.425781 120.9375 81.351562 120.644531 81.253906 120.15625 C 80.960938 117.914062 102.417969 104.84375 110.804688 97.433594 C 117.730469 91.289062 124.65625 84.460938 128.554688 79.292969 C 130.996094 75.976562 133.042969 72.464844 133.628906 70.417969 C 133.824219 69.539062 134.117188 68.953125 133.628906 68.367188 C 131.386719 66.125 105.734375 68.5625 100.761719 68.074219 C 99.199219 67.976562 98.421875 68.074219 97.835938 67.589844 C 97.347656 67.003906 96.859375 66.027344 97.347656 64.953125 C 99.492188 60.078125 133.921875 43.109375 141.136719 37.160156 C 143.867188 34.914062 146.792969 32.964844 146.210938 31.796875 C 145.234375 29.648438 125.144531 31.890625 117.828125 32.769531 C 113.34375 33.257812 109.148438 34.136719 106.808594 35.011719 C 105.636719 35.5 104.757812 35.597656 104.371094 36.671875 C 103.394531 39.304688 107.296875 46.621094 110.222656 54.714844 C 116.460938 71.976562 138.015625 121.328125 142.40625 135.273438 C 143.867188 139.953125 145.039062 143.367188 144.550781 144.929688 C 144.453125 145.609375 143.867188 146 143.476562 146 C 143.089844 146 142.210938 145.027344 142.210938 145.027344 "/></clipPath><clipPath id="635dd2a34a"><path d="M 89.929688 63.117188 L 186.765625 63.117188 L 186.765625 125.234375 L 89.929688 125.234375 Z M 89.929688 63.117188 "/></clipPath><clipPath id="423b87214b"><path d="M 90.324219 123.082031 C 161.230469 84.070312 169.226562 79.488281 175.175781 74.414062 C 179.367188 70.804688 182.878906 64.566406 184.734375 63.589844 C 185.316406 63.296875 185.902344 63.296875 186.097656 63.589844 C 186.488281 63.785156 186.585938 64.953125 186.390625 65.246094 C 186.195312 65.539062 184.929688 65.636719 184.734375 65.34375 C 184.441406 65.148438 184.636719 63.589844 184.929688 63.492188 C 185.222656 63.394531 186.488281 64.175781 186.585938 64.757812 C 186.78125 65.636719 185.414062 67.101562 184.246094 68.464844 C 182.488281 70.710938 179.953125 73.441406 176.441406 76.269531 C 170.6875 80.851562 162.398438 86.019531 152.449219 91.96875 C 136.945312 101.234375 97.25 124.058594 91.59375 125.03125 C 90.714844 125.226562 90.226562 125.128906 90.03125 124.835938 C 89.835938 124.449219 90.324219 123.082031 90.324219 123.082031 "/></clipPath><clipPath id="47a0cdfc6f"><path d="M 103.808594 79.605469 L 210.8125 79.605469 L 210.8125 145.589844 L 103.808594 145.589844 Z M 103.808594 79.605469 "/></clipPath><clipPath id="eb634296d0"><path d="M 104.660156 143.171875 C 161.324219 119.570312 167.179688 116.9375 172.738281 113.914062 C 177.320312 111.574219 180.539062 110.109375 184.734375 106.988281 C 190.292969 102.894531 198.09375 95.675781 202.386719 90.507812 C 205.410156 86.800781 207.359375 80.265625 209.019531 79.875 C 209.699219 79.683594 210.675781 80.558594 210.675781 80.851562 C 210.675781 81.144531 209.019531 82.023438 208.824219 81.828125 C 208.628906 81.632812 209.019531 79.875 209.308594 79.777344 C 209.601562 79.683594 210.480469 80.65625 210.578125 81.4375 C 210.675781 83.386719 207.066406 88.363281 203.945312 92.066406 C 199.65625 97.335938 191.558594 104.746094 185.902344 108.941406 C 181.613281 112.0625 178.296875 113.621094 173.710938 115.960938 C 168.054688 118.984375 162.203125 121.617188 154.207031 125.128906 C 141.625 130.6875 110.707031 145.417969 105.636719 145.417969 C 104.757812 145.320312 104.175781 145.027344 103.980469 144.636719 C 103.882812 144.246094 104.660156 143.171875 104.660156 143.171875 "/></clipPath><clipPath id="90a5b3a6c6"><path d="M 134.710938 26.148438 L 214.125 26.148438 L 214.125 133.269531 L 134.710938 133.269531 Z M 134.710938 26.148438 "/></clipPath><clipPath id="37450266ba"><path d="M 134.894531 117.132812 C 158.304688 94.3125 175.273438 69.34375 178.980469 68.660156 C 179.757812 68.464844 180.050781 68.757812 180.539062 69.441406 C 182.292969 71.683594 186 87.289062 185.707031 90.019531 C 185.609375 90.703125 185.414062 91.191406 185.125 91.289062 C 184.734375 91.484375 183.953125 91.289062 183.855469 91.09375 C 183.660156 90.3125 189.609375 85.824219 191.851562 84.558594 C 193.21875 83.777344 194.386719 82.996094 195.363281 83.191406 C 196.242188 83.289062 196.828125 83.972656 197.605469 84.949219 C 199.363281 86.898438 202.191406 96.164062 203.554688 95.96875 C 205.605469 95.480469 205.996094 77.632812 205.996094 70.222656 C 206.09375 64.46875 205.605469 60.761719 204.726562 54.910156 C 203.652344 47.105469 198.289062 30.820312 199.265625 27.601562 C 199.558594 26.820312 200.238281 26.332031 200.628906 26.332031 C 200.921875 26.332031 201.214844 26.625 201.507812 27.308594 C 202.679688 29.84375 202.289062 40.863281 203.359375 51.105469 C 205.214844 70.320312 216.625 130.300781 213.503906 133.03125 C 213.113281 133.519531 211.847656 132.933594 211.75 132.640625 C 211.652344 132.347656 212.820312 131.175781 213.113281 131.175781 C 213.40625 131.273438 213.894531 132.738281 213.601562 132.933594 C 213.40625 133.226562 212.234375 133.03125 211.75 132.445312 C 210.1875 130.6875 210.089844 123.667969 209.117188 116.644531 C 207.066406 102.308594 202.777344 67.296875 201.117188 51.300781 C 200.144531 42.132812 199.265625 33.160156 199.167969 29.550781 C 199.167969 28.285156 198.972656 27.601562 199.265625 27.113281 C 199.558594 26.625 200.144531 26.136719 200.628906 26.332031 C 202.386719 27.113281 204.921875 42.816406 206.1875 50.519531 C 207.359375 57.347656 208.140625 63.589844 208.238281 70.320312 C 208.335938 77.144531 207.457031 86.117188 206.578125 90.996094 C 205.996094 93.824219 205.703125 96.652344 204.726562 97.53125 C 204.140625 97.917969 203.457031 98.113281 202.679688 97.722656 C 200.726562 96.75 198.09375 86.214844 194.972656 85.339844 C 192.339844 84.65625 186.976562 88.75 185.707031 90.019531 C 185.222656 90.507812 185.414062 91.191406 185.125 91.289062 C 184.734375 91.484375 184.246094 91.484375 183.855469 91.09375 C 182.390625 89.628906 179.953125 79.292969 179.269531 75.097656 C 178.882812 72.464844 178.394531 69.050781 178.980469 68.660156 C 179.269531 68.464844 180.246094 68.855469 180.441406 69.148438 C 180.636719 69.441406 180.539062 69.832031 180.246094 70.515625 C 178.589844 74.316406 159.765625 95.96875 151.476562 104.746094 C 145.917969 110.695312 139.1875 117.914062 136.554688 118.984375 C 135.871094 119.277344 135.285156 119.277344 134.992188 118.984375 C 134.699219 118.691406 134.894531 117.132812 134.894531 117.132812 "/></clipPath></defs><g id="127c1b87ca"><g clip-rule="nonzero" clip-path="url(#4a99f4a691)"><g clip-rule="nonzero" clip-path="url(#2c27a1e044)"><path style=" stroke:none;fill-rule:nonzero;fill:#1e1e1e;fill-opacity:1;" d="M 77.355469 -1.949219 L 164.347656 -1.949219 L 164.347656 149.953125 L 77.355469 149.953125 Z M 77.355469 -1.949219 "/></g></g><g clip-rule="nonzero" clip-path="url(#635dd2a34a)"><g clip-rule="nonzero" clip-path="url(#423b87214b)"><path style=" stroke:none;fill-rule:nonzero;fill:#1e1e1e;fill-opacity:1;" d="M 86.132812 59.589844 L 190.5625 59.589844 L 190.5625 129.03125 L 86.132812 129.03125 Z M 86.132812 59.589844 "/></g></g><g clip-rule="nonzero" clip-path="url(#47a0cdfc6f)"><g clip-rule="nonzero" clip-path="url(#eb634296d0)"><path style=" stroke:none;fill-rule:nonzero;fill:#1e1e1e;fill-opacity:1;" d="M 100.078125 75.878906 L 214.539062 75.878906 L 214.539062 149.316406 L 100.078125 149.316406 Z M 100.078125 75.878906 "/></g></g><g clip-rule="nonzero" clip-path="url(#90a5b3a6c6)"><g clip-rule="nonzero" clip-path="url(#37450266ba)"><path style=" stroke:none;fill-rule:nonzero;fill:#1e1e1e;fill-opacity:1;" d="M 130.996094 22.433594 L 217.503906 22.433594 L 217.503906 136.988281 L 130.996094 136.988281 Z M 130.996094 22.433594 "/></g></g></g></svg>